<?xml version="1.0" encoding="UTF-8" standalone="no"?>
<svg
   version="1.1"
   style="display:block"
   viewBox="0 0 1551.5152 872.72727"
   width="400"
   height="225"
   id="svg10"
   sodipodi:docname="logo.svg"
   inkscape:version="1.4.2 (f4327f4, 2025-05-13)"
   xmlns:inkscape="http://www.inkscape.org/namespaces/inkscape"
   xmlns:sodipodi="http://sodipodi.sourceforge.net/DTD/sodipodi-0.dtd"
   xmlns="http://www.w3.org/2000/svg"
   xmlns:svg="http://www.w3.org/2000/svg">
  <defs
     id="defs10" />
  <sodipodi:namedview
     id="namedview10"
     pagecolor="#ffffff"
     bordercolor="#000000"
     borderopacity="0.25"
     inkscape:showpageshadow="2"
     inkscape:pageopacity="0.0"
     inkscape:pagecheckerboard="true"
     inkscape:deskcolor="#d1d1d1"
     inkscape:zoom="1.5284091"
     inkscape:cx="144.92193"
     inkscape:cy="212.96654"
     inkscape:window-width="2560"
     inkscape:window-height="1009"
     inkscape:window-x="1912"
     inkscape:window-y="-8"
     inkscape:window-maximized="1"
     inkscape:current-layer="svg10" />
  <path
     id="path2"
     d="m 316.91301,226.03664 c -81.596,3.374 -144.92373,72.40085 -141.27273,153.98485 3.652,81.582 72.89112,144.67001 154.46212,140.75001 81.18,-3.91 143.90673,-72.7454 140.27273,-153.9394 -3.634,-81.192 -72.25812,-144.15346 -153.46212,-140.79546 z m 11.02273,49.7197 c 16.19508,0.64238 31.77077,4.44833 45.97727,13.58333 20.025,12.877 33.35555,35.98155 38.20455,58.95455 5.89,27.904 2.02321,58.74515 -13.87879,82.76515 -13.987,21.13 -34.40746,32.33425 -58.79546,37.42425 -22.658,4.37 -46.12212,-0.22061 -65.46212,-12.81061 -20.032,-13.16 -32.84067,-34.95843 -37.41667,-58.24243 -5.705,-29.032 -1.31524,-60.9066 15.57576,-85.5606 14.615,-21.332 34.55924,-31.13131 59.42424,-35.78031 5.50675,-0.41 10.97286,-0.54745 16.37122,-0.33333 z"
     style="fill:#d1af5d;fill-opacity:1" />
  <path
     id="path4"
     d="m 1271.913,228.74876 c -8.5365,-0.44801 -17.0325,-0.26237 -25.25,0.46213 -36.45,4.214 -67.1157,16.10587 -90.5757,45.53787 -2.42,3.031 -4.8091,6.20313 -6.9091,9.46213 11.11,12.091 23.1021,18.427 38.2121,24.5 14.96,-20.822 32.4397,-35.82473 58.4697,-40.02273 19.86,-3.202 43.9088,1.04612 60.3788,12.96212 10.26,7.417 16.5388,17.56491 18.3788,30.09091 1.26,8.551 1.0388,17.47964 1.1288,26.11364 -50.48,5.485 -142.2276,3.19 -175.7576,45.5 -12.95,16.34 -17.0776,38.38 -14.5076,58.75 0.93,7.72 2.9861,15.25121 6.1061,22.37121 11.32,22.94 28.5954,38.39515 53.0454,46.51515 29.71,9.87 66.1294,6.36091 93.9394,-7.65909 16.06,-8.1 28.9212,-20.74697 40.6212,-34.19697 0.27,12.96 2.1452,26.00576 4.0152,38.82576 l 42.3485,0.45454 c -2.03,-17.71 -1.307,-35.98303 -1.197,-53.80303 l 1.3485,-94.79545 c 0.2,-21.081 1.6603,-43.09579 -3.9697,-63.62879 -4.71,-17.155 -14.2455,-32.37837 -28.2955,-43.38637 -19.9425,-15.62325 -45.9206,-22.70898 -71.5303,-24.05303 z m 54.394,147.82576 c -0.59,17.502 0.3645,37.00879 -7.5455,53.12879 -9.48,19.33 -29.6227,34.37303 -49.7727,41.05303 -21.16,7.02 -42.1197,7.01697 -62.2197,-3.05303 -2.48,-1.42 -4.8258,-2.96757 -7.0758,-4.75757 -8.92,-7.11 -13.3642,-16.32334 -14.4242,-27.58334 -1.05,-11.08 0.9512,-22.05854 8.3712,-30.70454 5.6,-6.523 13.2806,-10.82537 21.3106,-13.63637 20.87,-7.306 77.0088,-11.5586 101.6288,-13.8106 z"
     style="fill:#d1af5d;fill-opacity:1" />
  <path
     fill="#d1af5d"
     d="m 1260.17,594.24283 c 3.66,-0.26 9.06,-0.42 12.21,1.55 l 0.22,1.68 c -6.91,8.76 -24.3,13.97 -34.17,19.43 -18.34,10.13 -35.17,22.93 -52.33,34.89 -102.21,70.66 -227.98999,98.55 -350.48999,77.71 -28.73,-4.85 -56.82,-13.38 -84.447,-22.5 -69.054,-22.8 -136.259,-54.42 -208.075,-67.74 -71.053,-13.17 -140.307,-7.67 -211.234,2.46 -2.487,0.26 -4.976,0.5 -7.466,0.73 -5.844,0.51 -14.711,1.92 -19.492,-2.09 0.014,-1.87 -0.309,-1.81 1.057,-3.37 8.36,-9.56 48.866,-22.03 62.681,-26.03 109.54,-31.76 226.949,-12.28 333.202,23.06 18.534,6.17 36.668,13.5 55.129,19.89 32.775,11.33 65.625,20.29 99.925,25.58 112.25,17.34 197.67999,0.65 299.19999,-47.55 32.59,-15.46 67.47,-35.29 104.08,-37.7 z"
     id="path6" />
  <path
     fill="#d1af5d"
     d="m 835.97001,228.20183 c 15.03,-0.924 29.85,-1.211 44.74,1.485 40.18,7.28 68.79,30.43 91.47,63.284 -14.8,11.986 -30.12,22.543 -47.19,31.088 -3.61,-5.739 -7.5,-11.298 -11.65,-16.657 -13.85,-17.689 -31.66,-29.31 -54.25,-31.874 -20.91,-2.374 -43.71,1.413 -60.46,14.817 -19.3,15.439 -29.41,40.42 -31.9,64.488 -3.05,29.593 0.39,60.77 19.85,84.48 13.57,16.69 33.33,27.15 54.76,28.98 27.06,2.46 47.2,-3.33 67.96,-20.82 6.82,-6.79 12.87,-13.46 17.52,-21.95 14.64,10.33 31.35,18.14 47.64,25.45 -1.57,2.72 -3.17,5.45 -5.03,7.99 -21.58,29.54 -57.2,51.27 -93.39,56.38 -38.88,5.49 -77.5,-2.93 -108.88,-27.01 -29.964,-22.99 -47.598,-56.67 -52.337,-93.816 -5.288,-41.443 2.369,-82.256 28.628,-115.584 23.509,-29.836 55.079,-46.175 92.519,-50.731 z"
     id="path7" />
  <path
     fill="#d1af5d"
     d="m 650.17701,230.22583 c 11.595,-0.356 22.456,0.998 33.873,2.969 -1.126,16.299 -2.179,32.467 -2.524,48.809 -7.07,-1.3 -14.214,-2.162 -21.391,-2.581 -22.758,-1.135 -47.462,3.597 -64.745,19.42 -10.254,9.388 -16.76,21.902 -20.027,35.315 -4.598,18.881 -3.113,39.889 -3.207,59.208 -0.19,38.997 1.395,78.337 -0.301,117.267 -8.926,0.15 -47.56,2.51 -53.775,-1.11 l -0.652,-3.45 c 10e-4,-37.5 -1.444,-74.87 -2.019,-112.344 -0.802,-52.253 -0.697,-104.702 -0.314,-156.965 17.208,-0.256 34.419,-0.244 51.627,0.035 -0.513,14.884 -1.311,29.621 -0.556,44.513 5.953,-5.037 10.718,-11.362 15.8,-17.243 18.721,-21.667 39.754,-31.8 68.211,-33.843 z"
     id="path8" />
  <path
     fill="#d1af5d"
     d="m 1027.45,233.25783 c 17.22,-0.76 34.8,-0.495 52.03,-0.07 -0.11,54.649 -0.64,109.296 -1.59,163.937 -0.48,36.158 0.68,74.298 -3.88,110.158 -16.87,0.61 -34.08,0.26 -50.95,-0.26 -1.3,-33.63 1.54,-67.56 2.18,-101.2 z"
     id="path9" />
  <path
     fill="#d1af5d"
     d="m 1042.33,137.24383 c 12.02,-0.823 24.08,-0.981 36.12,-0.471 0.38,18.177 0.44,36.359 0.16,54.538 l -9.75,0.377 -40.2,0.36 0.26,-53.755 z"
     id="path10" />
</svg>